<mxfile host="app.diagrams.net" agent="Mozilla/5.0 (Windows NT 10.0; Win64; x64) AppleWebKit/537.36 (KHTML, like Gecko) Chrome/127.0.0.0 Safari/537.36 OPR/113.0.0.0" version="24.8.3" pages="2">
  <diagram id="C5RBs43oDa-KdzZeNtuy" name="Main">
    <mxGraphModel dx="917" dy="497" grid="1" gridSize="10" guides="1" tooltips="1" connect="1" arrows="1" fold="1" page="1" pageScale="1" pageWidth="827" pageHeight="1169" math="0" shadow="0">
      <root>
        <mxCell id="WIyWlLk6GJQsqaUBKTNV-0" />
        <mxCell id="WIyWlLk6GJQsqaUBKTNV-1" parent="WIyWlLk6GJQsqaUBKTNV-0" />
        <mxCell id="ADkl6Pt-Rn1Rdas1AGMV-3" style="edgeStyle=orthogonalEdgeStyle;rounded=0;orthogonalLoop=1;jettySize=auto;html=1;entryX=0.5;entryY=0;entryDx=0;entryDy=0;" edge="1" parent="WIyWlLk6GJQsqaUBKTNV-1" source="ADkl6Pt-Rn1Rdas1AGMV-0" target="ADkl6Pt-Rn1Rdas1AGMV-1">
          <mxGeometry relative="1" as="geometry" />
        </mxCell>
        <mxCell id="ADkl6Pt-Rn1Rdas1AGMV-0" value="Start" style="strokeWidth=2;html=1;shape=mxgraph.flowchart.terminator;whiteSpace=wrap;" vertex="1" parent="WIyWlLk6GJQsqaUBKTNV-1">
          <mxGeometry x="150" y="140" width="100" height="60" as="geometry" />
        </mxCell>
        <mxCell id="ADkl6Pt-Rn1Rdas1AGMV-6" style="edgeStyle=orthogonalEdgeStyle;rounded=0;orthogonalLoop=1;jettySize=auto;html=1;entryX=0.5;entryY=0;entryDx=0;entryDy=0;" edge="1" parent="WIyWlLk6GJQsqaUBKTNV-1" source="ADkl6Pt-Rn1Rdas1AGMV-1" target="ADkl6Pt-Rn1Rdas1AGMV-5">
          <mxGeometry relative="1" as="geometry" />
        </mxCell>
        <mxCell id="ADkl6Pt-Rn1Rdas1AGMV-1" value="int month,&amp;nbsp;&lt;div&gt;date, year&lt;div&gt;char loop&lt;/div&gt;&lt;/div&gt;" style="shape=hexagon;perimeter=hexagonPerimeter2;whiteSpace=wrap;html=1;fixedSize=1;" vertex="1" parent="WIyWlLk6GJQsqaUBKTNV-1">
          <mxGeometry x="140" y="240" width="120" height="80" as="geometry" />
        </mxCell>
        <mxCell id="ADkl6Pt-Rn1Rdas1AGMV-8" style="edgeStyle=orthogonalEdgeStyle;rounded=0;orthogonalLoop=1;jettySize=auto;html=1;entryX=0.5;entryY=0;entryDx=0;entryDy=0;" edge="1" parent="WIyWlLk6GJQsqaUBKTNV-1" source="ADkl6Pt-Rn1Rdas1AGMV-5" target="GZqiYuQ4Hh0XzFeLLxF9-0">
          <mxGeometry relative="1" as="geometry">
            <mxPoint x="200" y="460" as="targetPoint" />
          </mxGeometry>
        </mxCell>
        <mxCell id="ADkl6Pt-Rn1Rdas1AGMV-5" value="Input&amp;nbsp;&lt;span data-darkreader-inline-color=&quot;&quot; data-darkreader-inline-bgcolor=&quot;&quot; style=&quot;background-color: initial; color: rgb(0, 0, 0); --darkreader-inline-bgcolor: initial; --darkreader-inline-color: #e8e6e3;&quot;&gt;month,&amp;nbsp;&lt;/span&gt;&lt;div&gt;&lt;span data-darkreader-inline-color=&quot;&quot; data-darkreader-inline-bgcolor=&quot;&quot; style=&quot;background-color: initial; color: rgb(0, 0, 0); --darkreader-inline-bgcolor: initial; --darkreader-inline-color: #e8e6e3;&quot;&gt;date, year&lt;/span&gt;&lt;/div&gt;" style="shape=parallelogram;perimeter=parallelogramPerimeter;whiteSpace=wrap;html=1;fixedSize=1;" vertex="1" parent="WIyWlLk6GJQsqaUBKTNV-1">
          <mxGeometry x="140" y="360" width="120" height="60" as="geometry" />
        </mxCell>
        <mxCell id="GZqiYuQ4Hh0XzFeLLxF9-0" value="determineZodiac" style="shape=process;whiteSpace=wrap;html=1;backgroundOutline=1;" vertex="1" parent="WIyWlLk6GJQsqaUBKTNV-1">
          <mxGeometry x="140" y="460" width="120" height="60" as="geometry" />
        </mxCell>
        <mxCell id="GZqiYuQ4Hh0XzFeLLxF9-2" value="End" style="strokeWidth=2;html=1;shape=mxgraph.flowchart.terminator;whiteSpace=wrap;" vertex="1" parent="WIyWlLk6GJQsqaUBKTNV-1">
          <mxGeometry x="150" y="710" width="100" height="60" as="geometry" />
        </mxCell>
        <mxCell id="GZqiYuQ4Hh0XzFeLLxF9-3" style="edgeStyle=orthogonalEdgeStyle;rounded=0;orthogonalLoop=1;jettySize=auto;html=1;entryX=0.5;entryY=0;entryDx=0;entryDy=0;" edge="1" parent="WIyWlLk6GJQsqaUBKTNV-1" source="GZqiYuQ4Hh0XzFeLLxF9-0" target="EzUWujG1HON0mXqNVuHK-1">
          <mxGeometry relative="1" as="geometry" />
        </mxCell>
        <mxCell id="k7bZ-iNZpSux7IjI_JaH-0" style="edgeStyle=orthogonalEdgeStyle;rounded=0;orthogonalLoop=1;jettySize=auto;html=1;entryX=1;entryY=0.5;entryDx=0;entryDy=0;" edge="1" parent="WIyWlLk6GJQsqaUBKTNV-1" source="EzUWujG1HON0mXqNVuHK-1" target="ADkl6Pt-Rn1Rdas1AGMV-5">
          <mxGeometry relative="1" as="geometry">
            <Array as="points">
              <mxPoint x="300" y="610" />
              <mxPoint x="300" y="390" />
            </Array>
          </mxGeometry>
        </mxCell>
        <mxCell id="k7bZ-iNZpSux7IjI_JaH-2" value="True" style="edgeLabel;html=1;align=center;verticalAlign=middle;resizable=0;points=[];" vertex="1" connectable="0" parent="k7bZ-iNZpSux7IjI_JaH-0">
          <mxGeometry x="-0.8435" relative="1" as="geometry">
            <mxPoint as="offset" />
          </mxGeometry>
        </mxCell>
        <mxCell id="EzUWujG1HON0mXqNVuHK-1" value="Check&amp;nbsp;&lt;div&gt;again?&lt;/div&gt;" style="rhombus;whiteSpace=wrap;html=1;" vertex="1" parent="WIyWlLk6GJQsqaUBKTNV-1">
          <mxGeometry x="150" y="560" width="100" height="100" as="geometry" />
        </mxCell>
        <mxCell id="k7bZ-iNZpSux7IjI_JaH-1" style="edgeStyle=orthogonalEdgeStyle;rounded=0;orthogonalLoop=1;jettySize=auto;html=1;entryX=0.5;entryY=0;entryDx=0;entryDy=0;entryPerimeter=0;" edge="1" parent="WIyWlLk6GJQsqaUBKTNV-1" source="EzUWujG1HON0mXqNVuHK-1" target="GZqiYuQ4Hh0XzFeLLxF9-2">
          <mxGeometry relative="1" as="geometry" />
        </mxCell>
        <mxCell id="k7bZ-iNZpSux7IjI_JaH-3" value="False" style="edgeLabel;html=1;align=center;verticalAlign=middle;resizable=0;points=[];" vertex="1" connectable="0" parent="k7bZ-iNZpSux7IjI_JaH-1">
          <mxGeometry x="-0.2055" relative="1" as="geometry">
            <mxPoint as="offset" />
          </mxGeometry>
        </mxCell>
      </root>
    </mxGraphModel>
  </diagram>
  <diagram name="Zodiak Check" id="zl0EYyLlDMxdTDT9RvYv">
    <mxGraphModel dx="1062" dy="576" grid="1" gridSize="10" guides="1" tooltips="1" connect="1" arrows="1" fold="1" page="1" pageScale="1" pageWidth="827" pageHeight="1169" math="0" shadow="0">
      <root>
        <mxCell id="fFVjBfZOel1vEbS_FF2J-0" />
        <mxCell id="fFVjBfZOel1vEbS_FF2J-1" parent="fFVjBfZOel1vEbS_FF2J-0" />
        <mxCell id="_Cu8GeW2RyOemidvs3JU-1" style="edgeStyle=orthogonalEdgeStyle;rounded=0;orthogonalLoop=1;jettySize=auto;html=1;entryX=0;entryY=0.5;entryDx=0;entryDy=0;" edge="1" parent="fFVjBfZOel1vEbS_FF2J-1" source="fFVjBfZOel1vEbS_FF2J-11" target="fFVjBfZOel1vEbS_FF2J-13">
          <mxGeometry relative="1" as="geometry" />
        </mxCell>
        <mxCell id="fFVjBfZOel1vEbS_FF2J-11" value="21 Maret&amp;nbsp;&lt;div&gt;s/d&amp;nbsp;&lt;span data-darkreader-inline-color=&quot;&quot; data-darkreader-inline-bgcolor=&quot;&quot; style=&quot;background-color: initial; color: rgb(0, 0, 0); --darkreader-inline-bgcolor: initial; --darkreader-inline-color: #e8e6e3;&quot;&gt;19 April&lt;/span&gt;&lt;/div&gt;" style="rhombus;whiteSpace=wrap;html=1;" vertex="1" parent="fFVjBfZOel1vEbS_FF2J-1">
          <mxGeometry x="150" y="650" width="90" height="90" as="geometry" />
        </mxCell>
        <mxCell id="_Cu8GeW2RyOemidvs3JU-3" style="edgeStyle=orthogonalEdgeStyle;rounded=0;orthogonalLoop=1;jettySize=auto;html=1;entryX=0;entryY=0.5;entryDx=0;entryDy=0;" edge="1" parent="fFVjBfZOel1vEbS_FF2J-1" source="fFVjBfZOel1vEbS_FF2J-12" target="fFVjBfZOel1vEbS_FF2J-22">
          <mxGeometry relative="1" as="geometry" />
        </mxCell>
        <mxCell id="fFVjBfZOel1vEbS_FF2J-12" value="21 Mei&amp;nbsp;&lt;div&gt;&lt;span data-darkreader-inline-color=&quot;&quot; data-darkreader-inline-bgcolor=&quot;&quot; style=&quot;background-color: initial; color: rgb(0, 0, 0); --darkreader-inline-bgcolor: initial; --darkreader-inline-color: #e8e6e3;&quot;&gt;s/d 20 Juni&lt;/span&gt;&lt;/div&gt;" style="rhombus;whiteSpace=wrap;html=1;" vertex="1" parent="fFVjBfZOel1vEbS_FF2J-1">
          <mxGeometry x="454" y="650" width="90" height="90" as="geometry" />
        </mxCell>
        <mxCell id="_Cu8GeW2RyOemidvs3JU-2" style="edgeStyle=orthogonalEdgeStyle;rounded=0;orthogonalLoop=1;jettySize=auto;html=1;entryX=0;entryY=0.5;entryDx=0;entryDy=0;" edge="1" parent="fFVjBfZOel1vEbS_FF2J-1" source="fFVjBfZOel1vEbS_FF2J-13" target="fFVjBfZOel1vEbS_FF2J-12">
          <mxGeometry relative="1" as="geometry" />
        </mxCell>
        <mxCell id="fFVjBfZOel1vEbS_FF2J-13" value="20 April&amp;nbsp;&lt;div&gt;s/d 20 Mei&lt;/div&gt;" style="rhombus;whiteSpace=wrap;html=1;" vertex="1" parent="fFVjBfZOel1vEbS_FF2J-1">
          <mxGeometry x="300" y="650" width="90" height="90" as="geometry" />
        </mxCell>
        <mxCell id="_Cu8GeW2RyOemidvs3JU-8" style="edgeStyle=orthogonalEdgeStyle;rounded=0;orthogonalLoop=1;jettySize=auto;html=1;entryX=0.5;entryY=0;entryDx=0;entryDy=0;" edge="1" parent="fFVjBfZOel1vEbS_FF2J-1" source="fFVjBfZOel1vEbS_FF2J-14" target="fFVjBfZOel1vEbS_FF2J-19">
          <mxGeometry relative="1" as="geometry" />
        </mxCell>
        <mxCell id="fFVjBfZOel1vEbS_FF2J-14" value="&lt;font style=&quot;font-size: 9px;&quot;&gt;23 Oktober s/d&amp;nbsp;&lt;/font&gt;&lt;div&gt;&lt;font style=&quot;font-size: 9px;&quot;&gt;21 November&lt;/font&gt;&lt;/div&gt;" style="rhombus;whiteSpace=wrap;html=1;" vertex="1" parent="fFVjBfZOel1vEbS_FF2J-1">
          <mxGeometry x="600" y="790" width="90" height="90" as="geometry" />
        </mxCell>
        <mxCell id="_Cu8GeW2RyOemidvs3JU-7" style="edgeStyle=orthogonalEdgeStyle;rounded=0;orthogonalLoop=1;jettySize=auto;html=1;entryX=0;entryY=0.5;entryDx=0;entryDy=0;" edge="1" parent="fFVjBfZOel1vEbS_FF2J-1" source="fFVjBfZOel1vEbS_FF2J-15" target="fFVjBfZOel1vEbS_FF2J-14">
          <mxGeometry relative="1" as="geometry" />
        </mxCell>
        <mxCell id="fFVjBfZOel1vEbS_FF2J-15" value="&lt;font style=&quot;font-size: 9px;&quot;&gt;23 September&amp;nbsp;&lt;/font&gt;&lt;div style=&quot;font-size: 9px;&quot;&gt;&lt;font style=&quot;font-size: 9px;&quot;&gt;s/d 22 Oktober&lt;/font&gt;&lt;/div&gt;" style="rhombus;whiteSpace=wrap;html=1;" vertex="1" parent="fFVjBfZOel1vEbS_FF2J-1">
          <mxGeometry x="450" y="790" width="90" height="90" as="geometry" />
        </mxCell>
        <mxCell id="_Cu8GeW2RyOemidvs3JU-6" style="edgeStyle=orthogonalEdgeStyle;rounded=0;orthogonalLoop=1;jettySize=auto;html=1;" edge="1" parent="fFVjBfZOel1vEbS_FF2J-1" source="fFVjBfZOel1vEbS_FF2J-16" target="fFVjBfZOel1vEbS_FF2J-15">
          <mxGeometry relative="1" as="geometry" />
        </mxCell>
        <mxCell id="fFVjBfZOel1vEbS_FF2J-16" value="&lt;font style=&quot;font-size: 9px;&quot;&gt;23 Agustus s/d&amp;nbsp;&lt;/font&gt;&lt;div style=&quot;font-size: 9px;&quot;&gt;&lt;font style=&quot;font-size: 9px;&quot;&gt;22 September&lt;/font&gt;&lt;/div&gt;" style="rhombus;whiteSpace=wrap;html=1;" vertex="1" parent="fFVjBfZOel1vEbS_FF2J-1">
          <mxGeometry x="300" y="790" width="90" height="90" as="geometry" />
        </mxCell>
        <mxCell id="_Cu8GeW2RyOemidvs3JU-5" style="edgeStyle=orthogonalEdgeStyle;rounded=0;orthogonalLoop=1;jettySize=auto;html=1;entryX=0;entryY=0.5;entryDx=0;entryDy=0;" edge="1" parent="fFVjBfZOel1vEbS_FF2J-1" source="fFVjBfZOel1vEbS_FF2J-17" target="fFVjBfZOel1vEbS_FF2J-16">
          <mxGeometry relative="1" as="geometry" />
        </mxCell>
        <mxCell id="fFVjBfZOel1vEbS_FF2J-17" value="23 Juli s/d&amp;nbsp;&lt;div&gt;22 Agustus&lt;/div&gt;" style="rhombus;whiteSpace=wrap;html=1;" vertex="1" parent="fFVjBfZOel1vEbS_FF2J-1">
          <mxGeometry x="155" y="790" width="90" height="90" as="geometry" />
        </mxCell>
        <mxCell id="_Cu8GeW2RyOemidvs3JU-10" style="edgeStyle=orthogonalEdgeStyle;rounded=0;orthogonalLoop=1;jettySize=auto;html=1;entryX=1;entryY=0.5;entryDx=0;entryDy=0;" edge="1" parent="fFVjBfZOel1vEbS_FF2J-1" source="fFVjBfZOel1vEbS_FF2J-18" target="fFVjBfZOel1vEbS_FF2J-21">
          <mxGeometry relative="1" as="geometry" />
        </mxCell>
        <mxCell id="fFVjBfZOel1vEbS_FF2J-18" value="&lt;font style=&quot;font-size: 9px;&quot;&gt;22 Desember&amp;nbsp;&lt;/font&gt;&lt;div&gt;&lt;font style=&quot;font-size: 9px;&quot;&gt;s/d 19 Januari&lt;/font&gt;&lt;/div&gt;" style="rhombus;whiteSpace=wrap;html=1;" vertex="1" parent="fFVjBfZOel1vEbS_FF2J-1">
          <mxGeometry x="454" y="920" width="90" height="90" as="geometry" />
        </mxCell>
        <mxCell id="_Cu8GeW2RyOemidvs3JU-9" style="edgeStyle=orthogonalEdgeStyle;rounded=0;orthogonalLoop=1;jettySize=auto;html=1;entryX=1;entryY=0.5;entryDx=0;entryDy=0;" edge="1" parent="fFVjBfZOel1vEbS_FF2J-1" source="fFVjBfZOel1vEbS_FF2J-19" target="fFVjBfZOel1vEbS_FF2J-18">
          <mxGeometry relative="1" as="geometry" />
        </mxCell>
        <mxCell id="fFVjBfZOel1vEbS_FF2J-19" value="&lt;font style=&quot;font-size: 9px;&quot;&gt;22 November s/d&amp;nbsp;&lt;/font&gt;&lt;div&gt;&lt;font style=&quot;font-size: 9px;&quot;&gt;21 Desember&lt;/font&gt;&lt;/div&gt;" style="rhombus;whiteSpace=wrap;html=1;" vertex="1" parent="fFVjBfZOel1vEbS_FF2J-1">
          <mxGeometry x="600" y="920" width="90" height="90" as="geometry" />
        </mxCell>
        <mxCell id="fFVjBfZOel1vEbS_FF2J-20" value="&lt;font style=&quot;font-size: 10px;&quot;&gt;19 Februari s/d&amp;nbsp;&lt;/font&gt;&lt;div&gt;&lt;font style=&quot;font-size: 10px;&quot;&gt;20 Maret&lt;/font&gt;&lt;/div&gt;" style="rhombus;whiteSpace=wrap;html=1;" vertex="1" parent="fFVjBfZOel1vEbS_FF2J-1">
          <mxGeometry x="150" y="920" width="90" height="90" as="geometry" />
        </mxCell>
        <mxCell id="_Cu8GeW2RyOemidvs3JU-11" style="edgeStyle=orthogonalEdgeStyle;rounded=0;orthogonalLoop=1;jettySize=auto;html=1;entryX=1;entryY=0.5;entryDx=0;entryDy=0;" edge="1" parent="fFVjBfZOel1vEbS_FF2J-1" source="fFVjBfZOel1vEbS_FF2J-21" target="fFVjBfZOel1vEbS_FF2J-20">
          <mxGeometry relative="1" as="geometry" />
        </mxCell>
        <mxCell id="fFVjBfZOel1vEbS_FF2J-21" value="&lt;font style=&quot;font-size: 10px;&quot;&gt;20 Januari s/d&amp;nbsp;&lt;/font&gt;&lt;div&gt;&lt;span data-darkreader-inline-color=&quot;&quot; data-darkreader-inline-bgcolor=&quot;&quot; style=&quot;font-size: 10px; background-color: initial; color: rgb(0, 0, 0); --darkreader-inline-bgcolor: initial; --darkreader-inline-color: #e8e6e3;&quot;&gt;18 Februari&lt;/span&gt;&lt;/div&gt;" style="rhombus;whiteSpace=wrap;html=1;" vertex="1" parent="fFVjBfZOel1vEbS_FF2J-1">
          <mxGeometry x="310" y="920" width="90" height="90" as="geometry" />
        </mxCell>
        <mxCell id="_Cu8GeW2RyOemidvs3JU-4" style="edgeStyle=orthogonalEdgeStyle;rounded=0;orthogonalLoop=1;jettySize=auto;html=1;entryX=0;entryY=0.5;entryDx=0;entryDy=0;" edge="1" parent="fFVjBfZOel1vEbS_FF2J-1" source="fFVjBfZOel1vEbS_FF2J-22" target="fFVjBfZOel1vEbS_FF2J-17">
          <mxGeometry relative="1" as="geometry">
            <Array as="points">
              <mxPoint x="645" y="780" />
              <mxPoint x="135" y="780" />
              <mxPoint x="135" y="835" />
            </Array>
          </mxGeometry>
        </mxCell>
        <mxCell id="fFVjBfZOel1vEbS_FF2J-22" value="21 Juni&amp;nbsp;&lt;div&gt;s/d 22 Juli&lt;/div&gt;" style="rhombus;whiteSpace=wrap;html=1;" vertex="1" parent="fFVjBfZOel1vEbS_FF2J-1">
          <mxGeometry x="600" y="650" width="90" height="90" as="geometry" />
        </mxCell>
        <mxCell id="_Cu8GeW2RyOemidvs3JU-0" style="edgeStyle=orthogonalEdgeStyle;rounded=0;orthogonalLoop=1;jettySize=auto;html=1;entryX=0.5;entryY=0;entryDx=0;entryDy=0;" edge="1" parent="fFVjBfZOel1vEbS_FF2J-1" source="GBcejVi--QlMS2EdhjDJ-0" target="fFVjBfZOel1vEbS_FF2J-11">
          <mxGeometry relative="1" as="geometry" />
        </mxCell>
        <mxCell id="GBcejVi--QlMS2EdhjDJ-0" value="Start" style="strokeWidth=2;html=1;shape=mxgraph.flowchart.terminator;whiteSpace=wrap;" vertex="1" parent="fFVjBfZOel1vEbS_FF2J-1">
          <mxGeometry x="145" y="440" width="100" height="60" as="geometry" />
        </mxCell>
        <mxCell id="GBcejVi--QlMS2EdhjDJ-1" value="End" style="strokeWidth=2;html=1;shape=mxgraph.flowchart.terminator;whiteSpace=wrap;" vertex="1" parent="fFVjBfZOel1vEbS_FF2J-1">
          <mxGeometry x="145" y="1070" width="100" height="60" as="geometry" />
        </mxCell>
        <mxCell id="_Cu8GeW2RyOemidvs3JU-13" style="edgeStyle=orthogonalEdgeStyle;rounded=0;orthogonalLoop=1;jettySize=auto;html=1;entryX=0.5;entryY=0;entryDx=0;entryDy=0;entryPerimeter=0;" edge="1" parent="fFVjBfZOel1vEbS_FF2J-1" source="fFVjBfZOel1vEbS_FF2J-20" target="GBcejVi--QlMS2EdhjDJ-1">
          <mxGeometry relative="1" as="geometry" />
        </mxCell>
      </root>
    </mxGraphModel>
  </diagram>
</mxfile>
